<svg xmlns="http://www.w3.org/2000/svg" viewBox="0 0 1280 212"><defs><style>.a{fill:gray;}</style></defs><title>wordmark-thick</title><path class="a" d="M134.87207,181l-17.32959-42H34.08105L16.13232,181H8.32617l64.856-150h7.16064l62.32129,150Zm-19.26758-48L76.53223,38.15283,36.25781,133Z"/><path class="a" d="M135.54095,180l-17.32937-42H33.42087L15.47215,180h-5.624L73.8393,32h5.83612l61.49,148ZM76.5466,35.56156,34.74675,134H117.0983Z"/><polygon class="a" points="157 181 157 31 164 31 164 174 237 174 237 181 157 181"/><path class="a" d="M158,180V32h5V175h73v5Z"/><rect class="a" x="253" y="31" width="7" height="150"/><path class="a" d="M254,180V32h5V180Z"/><path class="a" d="M318.395,185a63.78575,63.78575,0,0,1-25.45605-4.9834,54.43611,54.43611,0,0,1-19.16748-13.49316l-.67285-.74951,5.02295-4.44434.66406.71875A50.1708,50.1708,0,0,0,296.832,174.627a56.34631,56.34631,0,0,0,21.355,4.20166A48.09118,48.09118,0,0,0,333.2627,176.481a40.15632,40.15632,0,0,0,12.582-6.71387,31.16154,31.16154,0,0,0,8.56543-10.71338,33.09179,33.09179,0,0,0,3.12109-14.6792,26.49025,26.49025,0,0,0-3.39111-13.873,34.15169,34.15169,0,0,0-8.8916-9.7251,54.29915,54.29915,0,0,0-12.55762-6.85889c-4.7085-1.84717-9.54932-3.55908-14.38965-5.08691-6.11572-1.94971-11.77783-4.03076-16.83105-6.186a51.76988,51.76988,0,0,1-13.35791-8.084,33.43462,33.43462,0,0,1-8.78662-11.606A39.2249,39.2249,0,0,1,276.21924,66.583,36.06315,36.06315,0,0,1,290.11865,37.3291a46.62244,46.62244,0,0,1,14.76807-7.6748A58.34429,58.34429,0,0,1,322.55371,27a55.35252,55.35252,0,0,1,21.70605,4.35449,43.26222,43.26222,0,0,1,16.91846,12.49023l.606.74414-5.04248,4.46191-.65625-.82227A38.46662,38.46662,0,0,0,341.58789,37.1499a46.5907,46.5907,0,0,0-19.2417-3.97852,51.58266,51.58266,0,0,0-14.38232,2.0459,40.42639,40.42639,0,0,0-12.68457,6.20654A31.62492,31.62492,0,0,0,286.207,51.83838,30.39651,30.39651,0,0,0,282.79395,66.583a30.04616,30.04616,0,0,0,3.00488,14.02979,30.84134,30.84134,0,0,0,8.05908,9.7998,46.98889,46.98889,0,0,0,11.50586,6.73828c4.3335,1.79443,8.82422,3.47021,13.34814,4.98047,6.2124,2.07715,12.10742,4.22363,17.52148,6.38086a63.39037,63.39037,0,0,1,14.47363,7.94873,33.90363,33.90363,0,0,1,9.854,11.49561,35.24612,35.24612,0,0,1,3.54492,16.418,38.73758,38.73758,0,0,1-3.7417,17.22949,39.5404,39.5404,0,0,1-9.92139,12.83545,42.043,42.043,0,0,1-14.58936,7.90674A57.68764,57.68764,0,0,1,318.395,185Z"/><path class="a" d="M363.10606,144.37437a37.58372,37.58372,0,0,1-3.63944,16.78854,38.35972,38.35972,0,0,1-9.67017,12.51351,40.86451,40.86451,0,0,1-14.24512,7.71671A56.43015,56.43015,0,0,1,318.39514,184a62.51517,62.51517,0,0,1-25.0594-4.90115,53.19438,53.19438,0,0,1-18.82007-13.24349l3.53539-3.12813a50.93212,50.93212,0,0,0,18.40434,12.82608,57.08586,57.08586,0,0,0,21.73163,4.27552,48.84672,48.84672,0,0,0,15.38874-2.39815,40.958,40.958,0,0,0,12.8934-6.88238,32.00112,32.00112,0,0,0,8.83823-11.05355,33.9143,33.9143,0,0,0,3.22372-15.12037q0-8.54884-3.53539-14.39039a34.97937,34.97937,0,0,0-9.15039-10.01051,55.045,55.045,0,0,0-12.78934-6.98673q-7.17459-2.81532-14.45323-5.10985-9.15308-2.9182-16.74046-6.1524a50.53811,50.53811,0,0,1-13.10151-7.92493,32.2952,32.2952,0,0,1-8.52607-11.26177,38.05969,38.05969,0,0,1-3.01561-15.9547,35.0658,35.0658,0,0,1,13.51723-28.46772,45.41758,45.41758,0,0,1,14.45323-7.508A57.07317,57.07317,0,0,1,322.55388,28a54.10358,54.10358,0,0,1,21.3159,4.27552A42.07017,42.07017,0,0,1,360.40262,44.476l-3.53539,3.12862a39.27478,39.27478,0,0,0-14.869-11.36661,47.37062,47.37062,0,0,0-19.652-4.06682,52.35138,52.35138,0,0,0-14.66134,2.08559,41.24684,41.24684,0,0,0-12.99745,6.36111,32.48048,32.48048,0,0,0-9.358,10.74049,31.23525,31.23525,0,0,0-3.53539,15.22472,30.87207,30.87207,0,0,0,3.11966,14.49474,31.699,31.699,0,0,0,8.31845,10.11487,47.77768,47.77768,0,0,0,11.74929,6.88238q6.551,2.71244,13.41367,5.005,9.35752,3.12838,17.46835,6.36111a62.1116,62.1116,0,0,1,14.24512,7.82107,32.76384,32.76384,0,0,1,9.56612,11.15741Q363.10631,134.98949,363.10606,144.37437Z"/><path class="a" d="M452.11084,185a78.5808,78.5808,0,0,1-30.54053-5.91748,73.40121,73.40121,0,0,1-24.34863-16.38672,75.53073,75.53073,0,0,1-16.01709-24.93652A85.02989,85.02989,0,0,1,375.41357,106a85.05545,85.05545,0,0,1,5.791-31.75928A75.55037,75.55037,0,0,1,397.22168,49.3042a73.72867,73.72867,0,0,1,24.2417-16.38574,82.30609,82.30609,0,0,1,61.29346,0A73.78924,73.78924,0,0,1,506.999,49.3042a75.65432,75.65432,0,0,1,16.01807,24.936A85.13525,85.13525,0,0,1,528.80762,106a85.10525,85.10525,0,0,1-5.79053,31.75928A75.63178,75.63178,0,0,1,506.999,162.6958a73.471,73.471,0,0,1-24.34863,16.38672A78.59878,78.59878,0,0,1,452.11084,185Zm0-151.82861a70.13233,70.13233,0,0,0-28.29736,5.65137A67.78444,67.78444,0,0,0,401.5752,54.33984,70.29023,70.29023,0,0,0,387.12061,77.4751,78.79128,78.79128,0,0,0,381.98877,106a80.19251,80.19251,0,0,0,5.03027,28.53076,69.8328,69.8328,0,0,0,14.24854,23.1333,66.56883,66.56883,0,0,0,22.12988,15.51318,75.76645,75.76645,0,0,0,57.42578,0,66.57164,66.57164,0,0,0,22.13037-15.51318,69.90134,69.90134,0,0,0,14.249-23.1333A80.27679,80.27679,0,0,0,522.23242,106a78.86237,78.86237,0,0,0-5.13135-28.5249,70.4028,70.4028,0,0,0-14.45557-23.13525,67.8014,67.8014,0,0,0-22.23779-15.51709A70.135,70.135,0,0,0,452.11084,33.17139Z"/><path class="a" d="M527.8077,106a83.72743,83.72743,0,0,1-5.71905,31.38764,74.29194,74.29194,0,0,1-15.805,24.60961,72.144,72.144,0,0,1-24.01935,16.16292,80.76944,80.76944,0,0,1-60.30777,0,72.08473,72.08473,0,0,1-24.01935-16.16292,74.19069,74.19069,0,0,1-15.80446-24.60961A83.65989,83.65989,0,0,1,376.41372,106a83.68529,83.68529,0,0,1,5.71905-31.38764,74.22562,74.22562,0,0,1,15.80446-24.60961,72.38626,72.38626,0,0,1,23.91529-16.16292,81.30765,81.30765,0,0,1,60.51587,0A72.44658,72.44658,0,0,1,506.2837,50.00275a74.327,74.327,0,0,1,15.805,24.60961A83.75287,83.75287,0,0,1,527.8077,106Zm-4.57544,0a79.48379,79.48379,0,0,0-5.19879-28.88513,71.06988,71.06988,0,0,0-14.66134-23.46222,68.47731,68.47731,0,0,0-22.56308-15.746,74.666,74.666,0,0,0-57.3967,0,68.449,68.449,0,0,0-22.56357,15.746,70.9654,70.9654,0,0,0-14.66085,23.46222A79.412,79.412,0,0,0,380.98867,106a80.80892,80.80892,0,0,0,5.09522,28.88513,70.51428,70.51428,0,0,0,14.45323,23.46222,67.2535,67.2535,0,0,0,22.45951,15.746,76.76123,76.76123,0,0,0,58.22815,0,67.26333,67.26333,0,0,0,22.45951-15.746,70.5698,70.5698,0,0,0,14.45323-23.46222A80.88355,80.88355,0,0,0,523.23226,106Z"/><polygon class="a" points="658.84 181 554 40.179 554 181 547 181 547 31 555.135 31 660 171.678 660 31 667 31 667 181 658.84 181"/><path class="a" d="M659.34173,180,553.62427,38H553V180h-5V32h6.6326L660.48371,174H661V32h5V180Z"/><polygon points="867 181 867 40.773 802.804 181 797.78 181 734 41.235 734 181 728 181 728 31 737.737 31 801 170.884 864.263 31 874 31 874 181 867 181"/><path d="M868,180V38h-.83039L802.16224,180h-3.73919L733.62352,38H733V180h-4V32h8.09218L801,173.31085,864.90782,32H873V180Z"/><rect x="899" y="31" width="7" height="150"/><path d="M900,180V32h5V180Z"/><polygon points="931 181 931 31 938 31 938 174 1011 174 1011 181 931 181"/><path d="M932,180V32h5V175h73v5Z"/><polygon points="1146.839 181 1042 40.178 1042 181 1035 181 1035 31 1042.789 31 1148 172.142 1148 31 1155 31 1155 181 1146.839 181"/><path d="M1147.34081,180l-105.716-142H1041V180h-5V32h6.28715l105.85063,142H1149V32h5V180Z"/><polygon points="1180 181 1180 31 1268 31 1268 37 1186 37 1186 100 1263 100 1263 107 1186 107 1186 175 1271 175 1271 181 1180 181"/><path d="M1181,180V32h86v4h-82v65h77v5h-77v70h85v4Z"/></svg>