<svg id="Layer_1" data-name="Layer 1" xmlns="http://www.w3.org/2000/svg" viewBox="0 0 315 315"><defs><style>.cls-1{fill:#ccc;}</style></defs><title>Artboard 11</title><path d="M249.29,257.48V64.58h-1.13L159.76,257.48h-5.08L66.56,64.58h-.85V257.48H59.5v-200h11l87,190.92,87-190.92h11v200Z"/><path d="M65.71,57.52V250.42h1.13L155.24,57.52h5.08l88.12,192.89h.85V57.52h6.21v200h-11l-87-190.92-87,190.92h-11v-200Z"/><polygon class="cls-1" points="65.71 250.42 65.71 257.48 70.51 257.48 157.5 66.56 244.48 257.48 249.28 257.48 249.29 250.42 160.32 57.52 155.24 57.52 65.71 250.42"/></svg>